<svg width="20" height="20" viewBox="0 0 20 20" fill="none" xmlns="http://www.w3.org/2000/svg">
<g clip-path="url(#clip0_465_2591)">
<path d="M9.99999 18.3337C14.6024 18.3337 18.3333 14.6027 18.3333 10.0003C18.3333 5.39795 14.6024 1.66699 9.99999 1.66699C5.39762 1.66699 1.66666 5.39795 1.66666 10.0003C1.66666 11.1494 1.89922 12.2441 2.31984 13.24C2.55231 13.7904 2.66854 14.0657 2.68293 14.2736C2.69732 14.4816 2.63611 14.7104 2.51367 15.168L1.66666 18.3337L4.8323 17.4866C5.28989 17.3642 5.51869 17.303 5.72668 17.3174C5.93466 17.3318 6.20987 17.448 6.76028 17.6805C7.7562 18.1011 8.85093 18.3337 9.99999 18.3337Z" stroke="#667085" stroke-width="1.5" stroke-linejoin="round"/>
<path d="M7.15681 10.3151L7.88259 9.41369C8.18848 9.03377 8.56663 8.68006 8.59623 8.1742C8.60371 8.04643 8.51381 7.47279 8.33401 6.32554C8.26335 5.87466 7.8424 5.83398 7.47778 5.83398C7.00263 5.83398 6.76506 5.83398 6.52914 5.94175C6.23096 6.07795 5.92483 6.46091 5.85765 6.78176C5.8045 7.03562 5.844 7.21054 5.923 7.56039C6.25853 9.04633 7.04569 10.5139 8.26624 11.7344C9.4868 12.955 10.9543 13.7421 12.4403 14.0777C12.7901 14.1567 12.965 14.1962 13.2189 14.143C13.5398 14.0758 13.9227 13.7697 14.0589 13.4715C14.1667 13.2356 14.1667 12.998 14.1667 12.5229C14.1667 12.1583 14.126 11.7373 13.6751 11.6667C12.5279 11.4869 11.9542 11.397 11.8265 11.4044C11.3206 11.434 10.9669 11.8122 10.587 12.1181L9.68556 12.8439" stroke="#667085" stroke-width="1.5"/>
</g>
<defs>
<clipPath id="clip0_465_2591">
<rect width="20" height="20" fill="white"/>
</clipPath>
</defs>
</svg>
