<svg width="15" height="15" viewBox="0 0 15 15" fill="none" xmlns="http://www.w3.org/2000/svg">
<path d="M5.75 8.44082C5.86802 8.6341 6.00807 8.81701 6.17013 8.98568C7.1764 10.033 8.71014 10.1967 9.88131 9.47681C10.0983 9.34343 10.3029 9.17972 10.4893 8.98568L13.1888 6.17618C14.3815 4.93487 14.3815 2.9223 13.1888 1.68099C11.9961 0.439671 10.0623 0.439672 8.86962 1.68099L8.27502 2.29982" stroke="#FF9200" stroke-width="1.5" stroke-linecap="round"/>
<path d="M6.55858 12.5326L5.96377 13.1517C4.77105 14.393 2.83726 14.393 1.64454 13.1517C0.45182 11.9104 0.45182 9.89782 1.64454 8.6565L4.34406 5.847C5.53678 4.60569 7.47056 4.60569 8.66328 5.847C8.82531 6.01563 8.96533 6.19849 9.08333 6.39172" stroke="#FF9200" stroke-width="1.5" stroke-linecap="round"/>
</svg>
